<?xml version="1.0" standalone="no"?>
<!DOCTYPE svg PUBLIC "-//W3C//DTD SVG 20010904//EN"
 "http://www.w3.org/TR/2001/REC-SVG-20010904/DTD/svg10.dtd">
<svg version="1.0" xmlns="http://www.w3.org/2000/svg"
 width="700.000000pt" height="700.000000pt" viewBox="0 0 700.000000 700.000000"
 preserveAspectRatio="xMidYMid meet">
<metadata>
Created by potrace 1.11, written by Peter Selinger 2001-2013
</metadata>
<g transform="translate(0.000000,700.000000) scale(0.100000,-0.100000)"
fill="#000000" stroke="none">
<path d="M2133 6108 c-6 -7 -18 -37 -27 -65 -22 -67 -32 -73 -31 -20 0 32 -4
42 -17 45 -16 3 -18 -6 -18 -80 0 -106 -12 -126 -28 -48 -13 63 -20 73 -41 61
-10 -6 -9 -22 3 -75 18 -77 20 -112 7 -121 -5 -3 -17 29 -26 70 -18 78 -23 88
-42 77 -12 -8 6 -142 26 -194 5 -14 6 -30 1 -37 -8 -14 -27 31 -53 124 -14 48
-38 68 -45 35 -1 -9 15 -66 36 -128 21 -61 36 -116 32 -122 -7 -12 -23 17 -55
105 -23 60 -55 87 -55 46 0 -31 33 -113 69 -171 17 -28 29 -56 25 -61 -8 -14
-70 73 -85 120 -16 50 -19 53 -34 41 -23 -19 26 -127 87 -196 16 -18 20 -40
22 -126 l2 -105 -54 -39 c-69 -49 -215 -192 -272 -264 -54 -69 -100 -142 -142
-222 -31 -60 -33 -61 -36 -33 -2 17 -12 75 -22 129 l-19 99 37 36 c21 20 48
51 61 69 16 23 30 32 50 32 32 0 127 36 154 58 40 35 4 43 -59 13 -51 -24
-109 -37 -100 -22 4 6 17 11 28 11 23 0 165 67 174 82 4 5 1 15 -5 21 -7 7
-24 3 -58 -16 -61 -33 -103 -49 -103 -39 0 4 17 16 38 27 71 37 143 86 149
101 10 25 -7 29 -40 10 -79 -47 -117 -67 -117 -63 0 2 34 30 75 62 70 54 93
85 61 85 -8 0 -35 -18 -62 -40 -26 -22 -50 -37 -53 -34 -6 6 99 104 112 104
11 0 8 28 -4 35 -6 4 -20 -1 -32 -12 -12 -10 -31 -25 -41 -33 -18 -13 -19 -13
-11 0 5 8 25 35 45 60 35 43 42 70 17 70 -6 0 -21 -12 -34 -27 l-22 -28 20 63
c12 35 19 66 16 69 -14 13 -35 -8 -41 -41 -9 -48 -21 -45 -38 7 -8 23 -22 43
-31 45 -22 5 -21 -16 3 -73 19 -44 32 -95 25 -95 -1 0 -20 23 -41 50 -21 28
-44 50 -51 50 -24 0 -13 -32 29 -84 23 -28 31 -41 17 -28 -14 12 -30 22 -37
22 -28 0 -20 -25 22 -70 25 -27 46 -56 46 -65 0 -15 -7 -8 -80 77 -13 15 -27
25 -32 22 -18 -12 -5 -42 42 -94 27 -30 49 -62 49 -70 0 -8 -19 6 -42 33 -39
44 -67 60 -67 37 0 -5 13 -22 28 -37 34 -33 62 -73 62 -88 0 -11 -70 66 -70
77 0 5 -9 8 -20 8 -31 0 -24 -21 25 -75 25 -28 45 -57 44 -65 0 -8 -24 11 -53
43 -43 47 -54 56 -60 42 -4 -11 9 -36 41 -76 25 -33 43 -63 39 -67 -9 -8 -56
47 -56 64 0 14 -25 26 -34 17 -12 -13 -5 -36 25 -78 29 -41 30 -44 15 -67 -9
-13 -27 -34 -40 -46 l-25 -21 -17 52 c-23 70 -75 182 -107 234 -23 36 -25 46
-16 70 15 40 22 165 10 183 -17 26 -30 -1 -32 -70 -1 -36 -5 -74 -9 -84 -11
-32 -19 -3 -11 37 12 49 6 154 -9 172 -22 26 -31 5 -27 -63 3 -37 1 -76 -4
-87 -9 -23 -10 -19 -14 55 -7 108 -16 161 -31 167 -24 9 -26 -1 -17 -81 5 -42
6 -76 1 -76 -4 0 -8 9 -8 21 0 19 -23 123 -36 158 -4 12 -7 12 -20 -1 -13 -13
-14 -22 -5 -54 13 -47 14 -87 2 -80 -8 6 -20 50 -27 111 -5 34 -18 50 -33 40
-11 -6 -10 -23 5 -87 10 -46 -5 -32 -39 39 -34 72 -57 91 -57 49 0 -13 5 -28
10 -31 6 -3 10 -11 10 -18 0 -6 -19 7 -41 31 -41 41 -69 54 -69 30 0 -7 16
-29 36 -50 l37 -37 -47 5 c-26 3 -54 3 -62 0 -18 -7 -8 -32 14 -33 51 -2 134
-12 139 -16 2 -3 -20 -11 -50 -18 -73 -16 -84 -23 -69 -42 11 -13 19 -13 55
-2 23 7 62 15 87 19 l45 6 -50 -16 c-59 -18 -76 -31 -57 -43 14 -8 60 -3 77 8
6 4 28 8 50 9 53 3 29 -12 -47 -28 -57 -13 -82 -35 -52 -47 9 -3 49 3 90 14
62 17 76 18 85 6 9 -10 8 -13 -5 -14 -9 -1 -19 -2 -23 -3 -5 -1 -27 -6 -50
-10 -26 -5 -43 -13 -43 -21 0 -23 14 -25 80 -9 35 8 68 13 74 11 6 -2 -15 -10
-47 -17 -31 -7 -63 -20 -69 -27 -22 -26 10 -31 80 -11 77 21 82 21 82 8 0 -8
-25 -17 -102 -34 -28 -6 -38 -31 -16 -38 7 -3 42 4 78 13 39 11 69 14 74 9 12
-12 -11 -21 -65 -23 -31 -2 -45 -7 -47 -19 -4 -22 23 -26 85 -12 l52 11 40
-76 c45 -88 82 -189 110 -299 27 -104 32 -147 36 -285 3 -154 -20 -286 -77
-436 l-9 -24 -25 24 c-14 13 -34 40 -45 60 l-18 37 44 48 c25 26 45 54 45 61
0 23 -30 27 -45 7 -37 -53 -56 -69 -65 -54 -6 10 8 29 51 71 56 54 74 89 46
89 -7 0 -35 -22 -62 -50 -53 -54 -65 -60 -64 -32 0 9 27 39 59 65 38 31 57 53
53 62 -8 23 -18 19 -75 -34 -29 -27 -56 -47 -61 -44 -15 9 41 88 77 106 20 11
36 25 36 33 0 24 -18 15 -72 -36 -40 -37 -54 -45 -57 -33 -2 10 25 44 68 86
39 38 71 74 71 78 0 23 -38 4 -93 -47 -40 -37 -63 -52 -66 -43 -2 7 24 38 59
70 37 33 60 61 56 68 -11 18 -22 13 -68 -28 -70 -64 -57 -37 22 45 57 59 70
78 59 84 -14 9 -46 -16 -105 -80 -35 -38 -30 -6 13 76 23 46 34 78 29 89 -8
23 -19 13 -56 -51 -30 -50 -34 -49 -45 13 -7 42 -27 69 -43 59 -6 -3 -2 -38 8
-83 l18 -77 -33 39 c-25 30 -36 37 -45 29 -8 -8 1 -31 36 -88 26 -42 45 -78
42 -81 -2 -3 -24 13 -48 35 -39 36 -70 46 -70 23 0 -5 27 -35 60 -68 34 -33
60 -68 60 -79 0 -16 -13 -7 -60 39 -47 47 -62 57 -72 47 -10 -10 6 -30 72 -97
46 -46 82 -87 79 -89 -3 -3 -39 21 -80 54 -79 64 -84 66 -95 48 -8 -13 47 -65
139 -130 71 -51 79 -81 10 -42 -26 14 -63 39 -82 54 -35 29 -51 31 -51 5 0
-19 94 -88 152 -111 43 -17 72 -44 47 -44 -19 0 -79 29 -125 61 -37 25 -48 29
-55 18 -17 -28 78 -92 177 -118 33 -9 45 -18 55 -43 7 -18 33 -56 56 -85 l43
-53 -25 -77 c-71 -210 -96 -438 -71 -643 l7 -55 -21 25 c-12 14 -31 36 -42 50
-11 14 -45 50 -75 81 -51 52 -53 57 -43 84 6 16 12 54 14 85 3 50 7 59 49 102
48 49 91 121 80 132 -15 14 -34 4 -47 -26 -18 -42 -75 -108 -75 -88 -1 8 11
26 25 39 31 29 87 138 79 151 -12 19 -25 10 -46 -32 -27 -54 -60 -101 -66 -94
-3 2 14 42 36 88 50 102 58 133 37 141 -10 4 -17 -2 -22 -16 -10 -35 -58 -127
-65 -127 -4 0 6 36 22 80 29 82 36 120 20 120 -14 0 -27 -22 -47 -80 -12 -35
-20 -48 -22 -35 -1 11 6 46 17 78 20 56 19 91 -2 84 -6 -2 -16 -21 -24 -42
-16 -48 -34 -69 -28 -34 2 13 5 49 7 79 2 44 0 55 -12 55 -10 0 -17 -13 -20
-40 l-5 -40 -14 63 c-14 64 -25 82 -42 65 -6 -6 -6 -26 0 -54 5 -24 8 -45 6
-47 -2 -2 -20 8 -39 23 -33 25 -66 28 -66 7 0 -5 29 -29 65 -53 35 -24 65 -47
65 -50 0 -4 -28 2 -62 12 -49 15 -63 17 -69 7 -12 -18 -3 -23 89 -53 90 -29
104 -40 30 -23 -78 18 -113 -13 -35 -32 50 -13 111 -39 105 -45 -3 -3 -31 4
-64 15 -71 23 -94 25 -94 5 0 -9 29 -23 84 -41 47 -14 87 -32 90 -39 3 -10
-11 -8 -55 7 -44 15 -64 17 -72 9 -12 -12 -6 -21 15 -25 50 -9 86 -21 103 -33
19 -14 18 -14 -10 -9 -16 4 -43 9 -59 12 -16 3 -33 7 -37 9 -4 3 -10 -2 -13
-10 -6 -17 18 -29 96 -47 28 -7 48 -17 48 -25 0 -10 -12 -8 -52 7 -63 24 -88
25 -88 6 0 -9 26 -23 70 -37 39 -13 70 -29 70 -35 0 -9 -15 -7 -50 8 -28 11
-54 18 -57 14 -13 -13 13 -39 57 -56 51 -20 62 -44 46 -100 -5 -19 -11 -36
-12 -38 -1 -2 -28 17 -61 41 -66 50 -212 137 -230 137 -6 0 -17 17 -24 38 -18
57 -54 125 -78 146 -35 31 -36 -4 -2 -60 33 -55 47 -94 33 -94 -5 0 -14 17
-20 38 -14 45 -81 136 -105 140 -24 5 -21 -20 7 -53 13 -15 33 -45 45 -66 31
-54 4 -40 -36 19 -41 59 -99 122 -112 122 -23 0 -9 -34 30 -78 71 -81 65 -90
-13 -15 -65 63 -78 71 -108 68 -45 -3 -47 -16 -9 -54 17 -18 30 -34 27 -36 -2
-3 -28 12 -57 31 -51 34 -81 39 -81 12 0 -8 12 -21 28 -31 l27 -17 -30 5 c-16
2 -45 9 -63 14 -26 8 -34 7 -39 -5 -7 -20 -2 -24 54 -38 l48 -13 -42 -21 c-48
-25 -61 -41 -43 -52 7 -5 39 6 76 26 36 19 70 34 76 34 7 0 -10 -22 -37 -50
-40 -40 -47 -52 -36 -62 10 -11 21 -4 55 32 64 67 95 91 53 41 -29 -35 -34
-47 -25 -58 10 -12 20 -5 61 41 27 31 56 56 64 56 10 0 -3 -20 -36 -54 -28
-30 -51 -60 -51 -65 0 -28 40 -4 90 54 31 37 59 60 64 55 5 -5 -8 -26 -30 -50
-41 -44 -49 -65 -25 -65 8 0 18 14 23 31 6 23 18 37 44 49 20 9 38 14 41 12 3
-3 -14 -25 -36 -50 -23 -24 -41 -49 -41 -56 0 -26 32 -8 76 44 30 35 51 52 57
46 6 -6 -7 -28 -36 -58 -42 -43 -45 -50 -31 -63 14 -13 21 -9 70 44 30 33 57
56 62 52 4 -5 -11 -24 -34 -44 -40 -36 -47 -62 -18 -62 8 0 34 18 58 41 l44
40 54 -27 c235 -118 457 -345 564 -580 34 -75 74 -207 74 -245 0 -17 -3 -17
-42 -5 -84 26 -98 36 -91 65 4 14 7 49 8 76 0 38 -4 50 -15 50 -11 0 -17 -16
-21 -58 -7 -62 -14 -76 -29 -61 -7 7 -4 37 8 92 16 67 17 84 6 93 -17 14 -29
-9 -43 -85 -12 -67 -12 -67 -28 -58 -9 6 -7 27 9 84 21 78 19 123 -5 99 -7 -6
-19 -39 -27 -73 -21 -81 -39 -88 -29 -10 3 32 12 68 18 80 12 23 8 42 -10 42
-12 0 -26 -37 -34 -91 -8 -56 -15 -66 -30 -46 -9 13 -7 36 11 108 13 51 21 96
18 100 -15 25 -32 2 -49 -63 -20 -82 -30 -105 -38 -92 -2 5 4 43 14 84 21 81
18 119 -6 87 -7 -10 -19 -41 -25 -68 -21 -88 -29 -42 -8 52 11 50 17 97 14
105 -11 27 -34 2 -41 -44 -4 -26 -12 -60 -19 -77 l-13 -30 -7 35 c-3 19 -8 58
-11 85 -8 71 -14 88 -29 76 -8 -7 -11 -31 -8 -73 l4 -63 -44 43 c-24 23 -49
42 -56 42 -26 0 -9 -29 47 -83 33 -32 57 -57 55 -57 -3 0 -23 9 -45 20 -38 20
-59 20 -59 0 0 -5 33 -25 74 -43 111 -52 107 -63 -16 -42 -23 4 -28 2 -28 -14
0 -19 17 -25 126 -46 18 -3 40 -15 50 -26 21 -23 23 -23 -67 -4 -49 11 -76 12
-83 5 -18 -18 7 -29 117 -51 59 -12 107 -25 107 -30 0 -7 -28 -6 -136 6 -63 6
-86 -3 -61 -24 14 -11 91 -21 190 -25 28 -1 61 -7 72 -14 18 -10 17 -12 -15
-14 -19 -1 -66 -2 -105 -2 -54 -1 -70 -4 -70 -15 0 -8 16 -19 35 -24 42 -11
176 -3 194 12 10 8 16 7 25 -3 10 -12 3 -16 -39 -25 -28 -6 -73 -11 -100 -11
-38 0 -50 -4 -50 -15 0 -8 10 -16 23 -16 56 -4 126 3 173 16 50 14 52 14 108
-14 31 -16 74 -32 96 -36 39 -7 39 -7 55 -76 8 -38 28 -105 44 -148 24 -67 26
-78 12 -77 -13 1 -16 -9 -17 -49 -3 -102 -4 -115 -11 -115 -5 0 -7 39 -6 86 1
47 -2 97 -8 110 -10 29 -36 27 -31 -2 8 -56 10 -154 3 -150 -4 3 -11 31 -14
63 -14 122 -26 173 -42 173 -8 0 -16 -3 -19 -8 -4 -7 9 -89 20 -126 4 -11 2
-16 -4 -12 -5 3 -17 37 -27 75 -9 39 -23 75 -31 82 -23 19 -27 -13 -9 -76 9
-31 14 -59 11 -62 -6 -7 -36 59 -36 79 0 7 -5 30 -10 50 -8 27 -15 36 -26 31
-11 -4 -14 -13 -9 -32 17 -70 14 -73 -18 -18 -44 75 -55 86 -67 68 -5 -10 -3
-25 6 -43 19 -37 13 -35 -38 12 -46 43 -53 46 -64 29 -3 -6 11 -28 31 -49 l37
-38 -43 0 c-24 0 -50 -1 -56 -1 -15 -1 -18 -30 -3 -32 9 -1 49 -4 123 -8 27
-2 29 -4 12 -11 -11 -5 -39 -14 -62 -20 -26 -7 -43 -17 -43 -25 0 -20 20 -19
102 6 82 24 100 21 28 -5 -28 -10 -50 -22 -50 -26 0 -20 25 -20 86 0 36 12 68
19 71 16 6 -6 -28 -21 -92 -40 -23 -7 -41 -19 -43 -29 -4 -22 15 -22 83 2 30
11 55 17 55 15 0 -3 9 0 19 5 14 8 22 7 30 -3 9 -10 -1 -16 -45 -26 -54 -13
-72 -28 -60 -48 3 -6 34 -2 73 9 36 10 68 17 70 15 2 -2 -23 -13 -56 -26 -42
-15 -58 -26 -54 -36 7 -18 13 -18 73 6 55 22 90 26 90 11 0 -6 -27 -18 -60
-27 -63 -18 -79 -29 -62 -46 6 -6 33 -3 81 10 55 15 71 16 71 6 0 -11 -24 -19
-90 -27 -8 -1 -15 -9 -15 -17 0 -17 47 -20 102 -6 27 6 34 4 48 -17 8 -14 20
-38 24 -55 l9 -30 -105 2 c-59 1 -139 -2 -180 -7 -70 -8 -75 -7 -103 17 -42
34 -137 79 -155 72 -28 -10 -15 -25 45 -52 33 -15 65 -33 71 -40 17 -21 6 -17
-63 21 -74 40 -148 56 -148 32 0 -10 22 -23 62 -36 69 -23 95 -37 87 -45 -3
-3 -43 8 -90 24 -111 38 -136 42 -143 24 -6 -17 11 -25 97 -49 31 -8 57 -20
57 -26 0 -6 -4 -8 -9 -4 -10 6 -77 19 -149 30 -38 5 -43 4 -40 -11 2 -13 21
-22 67 -32 43 -9 60 -17 50 -22 -8 -5 -45 -1 -83 7 -56 13 -70 13 -76 2 -13
-20 -3 -28 41 -35 60 -10 47 -21 -28 -23 -63 -2 -89 -13 -77 -33 3 -5 24 -7
47 -4 45 5 44 4 -47 -34 -40 -17 -46 -23 -36 -34 10 -13 18 -12 57 5 24 10 46
19 49 19 2 0 -8 -21 -22 -46 -22 -40 -24 -48 -12 -61 12 -12 18 -6 41 39 14
29 33 62 42 73 15 19 16 18 9 -25 -3 -25 -8 -55 -10 -66 -2 -13 2 -24 11 -28
18 -7 20 -4 39 92 17 88 25 101 18 34 -3 -38 -1 -50 12 -55 20 -8 23 -2 30 58
9 73 11 84 20 92 5 4 5 -14 1 -42 -14 -93 -15 -104 -4 -111 19 -11 29 11 40
93 8 51 17 84 26 87 10 4 12 -2 8 -22 -14 -85 -15 -101 -5 -107 18 -11 32 10
37 55 10 83 22 99 20 26 -1 -46 2 -70 10 -73 13 -5 20 17 28 90 5 53 12 70 25
62 4 -3 4 -22 -1 -42 -11 -49 -11 -103 0 -103 17 0 29 26 39 89 7 35 14 66 17
69 13 13 17 -11 8 -45 -6 -21 -12 -45 -14 -53 -3 -9 3 -15 15 -15 21 0 44 49
45 97 1 25 4 27 68 34 67 7 276 0 343 -11 235 -40 485 -161 618 -298 l44 -45
-34 -10 c-18 -6 -49 -14 -69 -17 l-36 -7 -31 66 c-28 60 -47 77 -65 60 -3 -4
0 -16 8 -28 8 -11 21 -37 29 -57 13 -30 13 -36 1 -36 -9 0 -26 29 -42 71 -14
39 -32 77 -39 85 -26 28 -25 -12 1 -79 19 -49 22 -66 13 -71 -18 -11 -22 -4
-48 78 -21 67 -43 97 -53 70 -2 -7 6 -42 19 -80 31 -90 13 -86 -22 6 -33 85
-40 95 -56 79 -9 -9 -5 -26 15 -73 15 -35 25 -64 22 -67 -14 -15 -36 17 -65
97 -19 55 -38 91 -46 91 -20 0 -17 -31 11 -105 17 -46 20 -65 11 -65 -7 0 -23
30 -36 67 -24 71 -36 93 -51 93 -14 0 -11 -43 6 -90 16 -45 14 -65 -3 -33 -5
10 -24 53 -42 95 -18 45 -38 78 -46 78 -20 0 -17 -20 11 -85 44 -99 32 -94
-78 33 -15 18 -31 32 -36 32 -24 0 -18 -22 19 -69 l40 -51 -27 0 c-16 0 -43 4
-61 9 -27 8 -34 7 -39 -6 -8 -21 8 -29 96 -44 l76 -12 -50 -9 c-56 -10 -75
-22 -58 -39 7 -7 35 -6 92 4 45 8 84 11 86 7 3 -4 -19 -16 -48 -27 -29 -11
-53 -27 -55 -37 -5 -23 13 -20 101 16 55 22 80 29 88 21 7 -7 -10 -19 -60 -38
-64 -25 -85 -45 -63 -59 4 -2 55 15 112 39 95 41 128 49 104 26 -5 -5 -42 -26
-81 -46 -68 -33 -95 -65 -57 -65 17 0 122 55 187 98 20 14 40 22 44 19 9 -10
-43 -53 -105 -89 -41 -24 -50 -33 -42 -44 9 -10 17 -10 38 -1 38 16 101 60
145 101 40 38 70 49 46 18 -22 -29 -42 -46 -91 -81 -47 -34 -62 -61 -34 -61
22 0 128 82 159 123 22 29 35 37 60 37 31 0 113 19 148 34 11 5 24 0 35 -11
37 -37 130 -112 201 -160 l71 -49 -70 -17 c-61 -15 -73 -15 -87 -3 -22 19 -77
46 -93 46 -7 0 6 -9 30 -20 67 -30 82 -92 33 -141 -42 -42 -92 -40 -137 5 -45
45 -43 96 5 133 9 7 11 13 5 13 -17 0 -74 -61 -75 -82 -1 -10 -2 -24 -3 -30
-6 -44 36 -108 85 -129 28 -11 29 -13 14 -29 -23 -25 -33 -71 -22 -97 13 -29
60 -47 110 -44 31 2 67 47 67 84 0 32 -29 77 -51 77 -5 0 6 16 25 35 34 33 55
92 42 114 -7 10 45 30 97 37 18 3 38 7 46 10 9 3 11 -1 6 -13 -4 -10 -11 -30
-17 -45 -5 -15 -17 -29 -26 -31 -12 -3 -10 -5 6 -6 54 -3 51 -93 -3 -107 -30
-8 -73 9 -81 31 -11 28 5 64 31 71 14 3 25 10 25 15 0 19 -70 -26 -84 -54 -22
-47 -4 -106 41 -126 93 -43 179 37 138 129 -18 39 -15 66 11 107 l14 22 72
-33 c40 -18 84 -37 97 -42 28 -12 36 -48 31 -148 -1 -11 8 -31 18 -46 19 -26
19 -26 -4 -55 -30 -38 -30 -76 0 -112 13 -15 26 -44 30 -64 10 -58 45 -83 124
-87 90 -5 132 7 158 46 12 17 24 29 26 26 3 -3 17 9 31 26 21 24 33 30 65 30
24 0 49 8 64 19 16 13 29 17 39 10 39 -25 70 16 99 134 11 43 14 46 37 41 16
-4 28 -2 34 7 4 8 22 14 38 14 25 0 32 -5 36 -26 10 -43 63 -119 83 -119 10 0
28 -14 40 -30 13 -17 32 -30 44 -30 11 0 31 -11 43 -24 18 -19 30 -23 56 -20
30 4 36 1 52 -25 24 -40 52 -54 94 -48 18 3 46 1 62 -4 65 -23 137 50 156 156
9 47 0 41 -35 -23 -14 -26 -33 -48 -43 -50 -14 -3 -12 2 9 23 19 19 25 33 21
53 -7 38 9 65 35 56 15 -4 19 -2 15 7 -2 8 -10 13 -16 12 -6 -2 -11 7 -11 20
-1 21 -2 20 -28 -10 -48 -56 -132 -94 -132 -59 0 7 7 19 15 26 18 15 20 51 4
67 -16 16 -2 33 26 33 38 0 115 23 116 35 0 5 2 18 4 28 4 22 -1 22 -32 -3
-14 -11 -41 -20 -59 -20 l-33 0 17 39 c14 33 23 40 59 48 40 10 43 9 43 -10 0
-20 0 -21 15 -1 8 10 15 26 15 34 0 12 144 89 221 118 5 2 9 -15 9 -37 0 -23
-4 -41 -9 -41 -6 0 -22 -16 -37 -35 -21 -28 -26 -45 -25 -87 0 -28 8 -62 17
-75 18 -28 70 -53 111 -53 54 0 117 55 128 110 l4 23 -22 -21 c-48 -45 -136
-29 -156 28 -9 27 0 86 17 115 4 6 7 32 7 60 0 42 4 51 25 63 22 13 29 12 60
-7 33 -19 35 -24 32 -61 l-4 -40 -39 6 c-45 7 -55 -10 -11 -19 32 -7 73 -42
89 -77 l12 -25 0 27 c1 24 4 27 24 19 12 -4 34 -8 49 -7 25 2 26 1 12 -26 -17
-33 -18 -49 -3 -82 14 -31 62 -55 95 -48 42 8 70 68 58 125 -6 29 -55 62 -79
53 -11 -4 -11 2 1 29 20 49 18 58 -7 44 -28 -15 -94 4 -109 31 -13 24 -13 67
0 75 6 3 10 10 10 16 0 14 -33 11 -58 -6 -19 -14 -24 -14 -47 1 -14 9 -24 18
-23 19 2 1 38 32 82 70 l78 68 52 -16 c28 -9 73 -19 100 -21 31 -4 53 -12 61
-23 27 -38 78 -86 123 -114 54 -34 62 -35 62 -10 0 12 -16 29 -42 44 -57 34
-119 97 -94 97 9 0 38 -20 62 -44 75 -72 174 -116 174 -77 0 5 -20 19 -44 30
-47 23 -128 90 -109 91 6 0 46 -20 87 -45 93 -55 147 -78 157 -68 14 14 -4 28
-89 74 -46 24 -79 45 -73 47 6 2 55 -15 110 -37 55 -23 107 -38 116 -35 25 10
2 29 -66 54 -32 13 -62 27 -65 31 -11 18 44 8 111 -20 38 -16 73 -27 77 -25
21 13 3 32 -49 54 -72 30 -58 35 47 17 71 -13 82 -13 87 0 7 18 -13 33 -47 33
-31 0 -66 20 -36 20 11 0 48 5 83 11 53 9 63 14 63 31 0 21 -2 21 -105 2 l-30
-6 26 28 c41 45 58 75 52 90 -9 24 -19 16 -78 -56 -31 -39 -61 -70 -66 -70 -5
0 3 30 16 67 27 69 27 110 1 82 -7 -8 -28 -51 -46 -96 -18 -46 -37 -83 -42
-83 -6 0 -7 8 -3 18 17 43 32 101 27 106 -12 13 -31 5 -37 -16 -19 -70 -49
-138 -60 -138 -9 0 -4 24 16 82 18 53 25 86 19 92 -15 15 -26 -1 -60 -94 -29
-77 -42 -99 -62 -100 -4 0 4 32 19 70 14 39 23 73 20 77 -16 15 -35 -9 -39
-51 -5 -42 -48 -113 -61 -100 -3 3 5 36 18 74 13 38 21 71 17 74 -18 18 -34
-2 -56 -72 -15 -49 -30 -78 -40 -80 -22 -5 -20 8 9 80 17 42 22 65 15 72 -14
14 -24 1 -55 -81 -16 -44 -32 -73 -41 -73 -12 0 -12 6 1 37 9 21 23 45 32 55
13 14 14 21 5 30 -17 17 -47 -15 -68 -73 -13 -35 -23 -49 -37 -49 -31 0 -107
22 -114 33 -3 6 18 33 48 60 101 93 257 182 405 231 87 29 95 30 219 51 74 13
367 16 378 5 3 -3 8 -21 11 -41 9 -61 24 -89 46 -89 22 0 24 4 11 28 -5 9 -12
34 -15 54 -4 29 -3 36 8 32 7 -3 13 -21 14 -40 2 -63 21 -116 40 -112 9 3 16
9 15 16 -12 57 -14 122 -4 122 6 0 11 -1 11 -2 1 -2 3 -30 6 -63 4 -33 11 -69
16 -79 10 -19 11 -19 24 -1 7 10 11 21 9 25 -2 3 -7 31 -10 61 l-6 54 18 -25
c12 -17 18 -42 17 -77 0 -35 4 -54 13 -58 21 -7 25 15 15 79 -6 40 -6 56 2 53
6 -2 17 -42 25 -88 13 -82 28 -112 43 -85 4 7 5 24 3 37 -3 13 -7 41 -11 63
-3 22 -8 45 -11 51 -2 5 3 1 11 -9 9 -11 17 -30 17 -43 1 -13 3 -27 4 -33 1
-5 3 -24 4 -41 1 -40 36 -38 36 3 1 52 12 38 24 -32 9 -46 17 -70 26 -70 23 0
24 13 10 80 l-13 65 20 -25 c11 -14 31 -46 44 -72 13 -27 28 -48 34 -48 21 0
19 22 -4 65 -28 49 -26 52 27 30 47 -19 59 -19 55 3 -2 10 -26 25 -63 39 -47
18 -53 23 -30 22 48 -2 55 0 55 16 0 8 -6 15 -12 16 -7 1 -42 3 -77 5 -76 5
-87 10 -35 19 47 7 68 18 63 30 -4 11 -50 11 -121 0 -31 -5 -48 -4 -48 2 0 9
92 29 113 24 13 -2 21 31 8 38 -6 4 -40 2 -74 -5 -114 -22 -128 -24 -123 -15
3 4 31 16 63 25 70 21 85 28 91 46 7 19 -72 7 -160 -25 -38 -14 -75 -25 -81
-25 -21 0 46 36 101 54 33 11 52 23 52 33 0 25 -74 8 -149 -33 -35 -19 -65
-33 -68 -30 -5 5 70 50 110 65 24 10 39 41 18 41 -23 0 -82 -27 -133 -61 -54
-37 -61 -38 -110 -32 -29 4 -110 6 -180 6 l-127 -1 9 24 c26 66 41 86 63 80
12 -4 43 -9 70 -13 43 -5 47 -4 47 15 0 14 -6 20 -17 20 -32 -2 -93 13 -93 22
0 14 29 12 89 -6 52 -15 81 -14 81 5 0 5 -32 19 -71 31 -53 16 -69 24 -60 33
8 8 28 5 77 -12 48 -16 69 -20 77 -12 15 15 2 25 -63 46 -46 15 -51 19 -33 26
30 11 62 3 96 -22 20 -14 32 -18 39 -11 17 17 1 30 -59 47 -39 11 -53 19 -45
27 7 7 31 4 80 -11 86 -26 92 -26 92 -2 0 14 -14 22 -60 35 -33 9 -60 21 -60
26 0 7 84 -15 133 -35 13 -5 17 -2 17 13 0 19 -19 31 -78 47 -13 4 -22 9 -19
11 2 2 41 -7 88 -21 78 -22 110 -21 95 3 -3 5 -27 15 -53 22 -75 20 -74 25 12
30 62 4 80 8 80 20 0 11 -12 15 -52 15 -29 -1 -53 2 -53 5 0 4 14 19 30 35 50
48 30 79 -22 33 -14 -13 -35 -32 -47 -43 l-23 -20 18 37 c10 21 15 41 11 44
-14 14 -37 -8 -68 -66 -35 -66 -44 -72 -29 -19 14 47 12 69 -4 69 -8 0 -19
-20 -26 -47 -22 -85 -34 -118 -37 -103 -2 8 3 39 10 67 14 54 13 63 -8 63 -11
0 -55 -130 -55 -164 0 -8 -5 -18 -11 -22 -7 -4 -9 0 -6 12 3 11 8 42 12 69 3
28 8 57 11 67 6 19 -7 30 -24 19 -12 -7 -29 -80 -37 -166 -3 -27 -10 -54 -16
-60 -8 -8 -7 49 4 140 1 11 -5 21 -15 23 -22 4 -33 -65 -25 -162 5 -54 3 -66
-5 -52 -6 11 -11 53 -11 93 0 66 -2 74 -17 70 -16 -4 -14 5 10 72 15 42 35
108 45 148 l17 71 46 12 c25 6 69 23 98 37 45 22 58 24 81 15 44 -17 90 -24
151 -23 98 1 92 33 -7 36 -78 3 -135 15 -123 27 7 7 27 6 59 0 50 -11 174 -9
193 3 6 4 9 12 7 18 -2 8 -35 12 -95 13 -51 0 -95 4 -99 8 -14 14 21 24 78 25
92 0 173 12 188 27 23 22 -7 27 -104 17 -104 -11 -122 0 -27 17 128 22 162 31
162 45 0 23 -13 24 -85 9 -38 -8 -73 -13 -79 -11 -14 5 33 35 64 41 111 20
149 38 120 56 -8 5 -17 7 -20 5 -10 -6 -110 -16 -110 -11 0 3 36 22 80 42 58
27 80 42 77 53 -4 18 -8 18 -62 -4 -40 -17 -40 -17 22 40 39 35 60 62 56 71
-8 20 -13 18 -61 -26 -24 -22 -45 -40 -48 -40 -2 0 -2 29 2 65 6 56 5 65 -10
65 -9 0 -16 -3 -17 -7 0 -5 -2 -15 -3 -23 -2 -8 -7 -45 -10 -82 -4 -37 -12
-70 -17 -73 -5 -4 -10 -1 -10 4 -1 6 -2 14 -3 19 -1 4 -5 24 -10 46 -13 68
-25 90 -40 77 -13 -11 -12 -26 9 -126 17 -84 17 -90 7 -80 -6 6 -13 21 -15 35
-9 48 -27 80 -43 80 -12 0 -15 -6 -10 -22 24 -85 36 -152 28 -160 -5 -5 -16
25 -27 72 -19 84 -39 117 -52 85 -3 -10 4 -58 16 -108 16 -63 19 -93 12 -100
-16 -16 -21 -6 -38 67 -13 60 -27 78 -45 60 -4 -3 2 -24 13 -47 19 -43 25
-112 11 -121 -5 -3 -17 26 -26 65 -20 75 -28 86 -45 66 -8 -10 -5 -32 9 -83
11 -38 18 -75 15 -81 -10 -29 -23 -9 -35 58 -12 63 -30 93 -46 76 -3 -3 2 -44
11 -92 12 -58 14 -90 7 -97 -14 -14 -21 2 -26 62 -4 59 -17 78 -35 56 -9 -11
-10 -28 -2 -72 6 -32 11 -61 11 -66 0 -10 -68 -44 -106 -52 -30 -7 -30 -6 -27
31 1 21 -4 6 -12 -33 -50 -261 -156 -499 -298 -669 -76 -91 -122 -132 -163
-145 -37 -12 -113 -51 -181 -92 -18 -11 -33 -17 -33 -14 0 3 13 24 28 48 16
24 35 54 43 67 10 15 37 30 84 45 93 30 161 72 145 91 -10 12 -22 8 -73 -19
-34 -19 -74 -37 -89 -40 -42 -10 -34 12 10 30 76 31 118 54 152 83 28 23 33
32 23 42 -10 10 -21 7 -55 -18 -53 -38 -106 -65 -118 -61 -16 5 3 23 55 53 62
35 142 96 149 113 11 26 -25 23 -61 -5 -105 -80 -167 -102 -86 -31 89 79 133
121 133 128 0 26 -35 11 -88 -37 -88 -77 -82 -39 6 44 54 51 64 65 52 73 -11
7 -23 2 -44 -18 -17 -15 -36 -33 -44 -39 -7 -7 -15 -13 -18 -13 -11 0 0 21 41
78 25 34 45 69 45 77 0 28 -27 15 -55 -25 -15 -22 -29 -40 -30 -40 0 0 10 34
23 75 25 79 24 122 -3 94 -7 -8 -20 -36 -28 -64 l-14 -50 -29 58 c-15 31 -34
57 -41 57 -19 0 -17 -9 22 -101 20 -45 34 -84 32 -86 -2 -2 -27 22 -56 52 -47
51 -72 62 -71 32 1 -7 30 -43 65 -82 76 -82 86 -105 18 -40 -26 25 -50 45 -54
45 -26 0 -14 -29 35 -80 80 -84 74 -112 -7 -32 -34 34 -68 62 -75 62 -19 0
-14 -25 11 -51 82 -84 109 -120 103 -135 -5 -13 -17 -5 -57 40 -54 59 -64 65
-72 42 -3 -7 18 -39 48 -72 71 -77 71 -104 1 -35 -37 37 -60 52 -71 48 -22 -9
-9 -32 55 -91 35 -33 49 -53 45 -64 -5 -13 -18 -5 -62 41 -30 31 -59 57 -63
57 -25 0 -11 -33 36 -85 51 -57 68 -91 42 -83 -7 3 -29 25 -48 51 -25 34 -37
43 -47 36 -16 -14 -7 -35 39 -92 l40 -48 -34 -56 c-51 -85 -185 -239 -284
-327 -103 -91 -215 -167 -329 -221 -44 -22 -89 -46 -100 -56 -44 -36 -132 -50
-192 -29 -43 15 -83 90 -48 90 8 0 39 11 70 25 53 23 72 27 68 14 -1 -3 20
-28 48 -55 59 -58 65 -47 9 15 -36 40 -48 72 -41 113 3 21 -224 109 -278 107
-14 0 12 -11 59 -25 87 -26 191 -73 197 -90 8 -23 -128 -74 -196 -74 -47 0
-47 0 -58 42 -7 24 -26 58 -44 76 -26 26 -29 35 -19 47 26 31 -18 15 -63 -22
-24 -21 -69 -57 -100 -80 -30 -23 -68 -63 -85 -88 l-29 -45 -7 43 c-22 136
-56 198 -123 222 -26 9 -68 28 -93 40 -168 86 -293 84 -387 -7 -33 -32 -43
-71 -22 -84 7 -4 2 -15 -15 -30 -42 -39 -79 -111 -72 -139 l6 -25 -63 24
c-276 104 -526 309 -696 570 -57 88 -59 72 12 150 28 31 32 66 10 74 -7 2 -17
-7 -22 -21 -5 -13 -21 -37 -36 -52 -20 -23 -28 -26 -38 -16 -9 10 -9 14 4 21
9 5 38 35 64 65 36 42 45 59 36 68 -8 8 -26 -3 -70 -47 -81 -80 -91 -55 -12
30 57 60 67 84 38 84 -6 0 -35 -23 -64 -52 -70 -69 -68 -42 2 34 46 49 54 63
44 75 -11 12 -21 6 -65 -41 -28 -31 -55 -56 -58 -56 -22 0 4 45 59 104 36 38
65 75 65 83 0 27 -28 11 -83 -46 -31 -33 -60 -55 -63 -50 -7 12 5 28 64 91 39
40 48 68 23 68 -4 0 -29 -21 -56 -48 -62 -59 -50 -37 28 51 42 48 57 72 52 84
-5 15 -16 8 -61 -39 -56 -59 -72 -63 -49 -13 52 110 60 145 35 145 -5 0 -21
-26 -36 -57 l-27 -58 -17 55 c-11 33 -24 56 -34 58 -21 4 -20 -9 4 -87 11 -36
18 -66 17 -67 -1 -2 -11 10 -22 26 -23 35 -45 46 -56 29 -4 -7 8 -33 30 -63
43 -59 65 -96 55 -96 -4 0 -27 18 -51 40 -24 23 -48 38 -53 35 -12 -7 -13 -35
-2 -35 16 -1 110 -96 117 -120 7 -21 1 -18 -44 20 -82 70 -88 73 -94 56 -6
-16 62 -87 128 -134 32 -23 45 -42 29 -42 -3 0 -42 25 -85 56 -64 45 -80 52
-85 40 -9 -23 8 -39 105 -104 82 -54 104 -72 96 -80 -6 -7 -93 38 -124 64 -21
17 -37 24 -49 19 -28 -11 57 -79 139 -111 38 -15 69 -33 69 -40 0 -16 -60 3
-128 41 -53 30 -62 31 -62 8 0 -30 98 -84 176 -97 22 -4 44 -15 50 -24 6 -9
25 -44 44 -76 l33 -59 -44 27 c-49 31 -185 96 -199 96 -21 0 -145 140 -205
230 -158 239 -238 501 -239 784 l-1 150 54 13 c67 17 93 34 81 53 -7 11 -14
11 -42 -3 -56 -26 -88 -31 -88 -14 0 11 18 19 58 27 71 15 122 36 122 49 0 13
-37 14 -76 2 -61 -19 -94 -21 -94 -5 0 20 9 23 123 40 38 5 47 10 47 27 0 21
0 21 -125 1 -69 -11 -26 12 58 31 82 18 90 23 78 44 -6 10 -22 9 -75 -3 -81
-19 -76 -19 -76 -1 0 8 12 17 28 21 89 20 175 43 180 48 3 4 1 11 -6 18 -10
10 -76 2 -154 -19 -11 -3 -18 1 -18 10 0 10 21 18 63 27 92 18 97 20 97 37 0
13 -8 14 -47 9 -27 -4 -56 -9 -65 -12 -10 -3 -18 -1 -18 4 0 5 40 20 88 31
105 26 122 35 104 53 -10 10 -25 9 -76 -5 -35 -9 -67 -17 -71 -17 -16 0 13 25
75 65 75 48 89 63 70 75 -9 5 -33 -4 -67 -26 -29 -18 -53 -32 -53 -31 0 2 7
27 16 56 10 35 12 57 6 63 -17 17 -28 1 -48 -69 l-19 -68 -5 45 c-3 31 -10 45
-20 45 -12 0 -15 -17 -16 -87 0 -48 -3 -91 -7 -94 -3 -4 -11 14 -18 40 -12 48
-22 61 -38 51 -5 -3 0 -37 13 -78 12 -39 21 -78 20 -84 -1 -7 -2 -18 -3 -24
-3 -26 -19 6 -31 59 -15 71 -23 87 -43 79 -12 -4 -10 -22 14 -114 16 -59 29
-109 29 -110 0 -2 -4 -3 -9 -3 -9 0 -61 121 -61 143 0 19 -20 36 -35 31 -16
-7 -6 -46 41 -157 40 -95 46 -142 12 -89 -11 18 -31 59 -44 90 -24 59 -40 74
-50 48 -9 -23 32 -118 73 -172 22 -28 32 -49 26 -55 -11 -11 -66 61 -89 116
-12 29 -19 35 -34 30 -19 -6 -20 -2 -16 127 5 156 22 275 45 302 27 32 128 96
198 126 l67 28 17 -27 c22 -36 69 -55 117 -48 90 15 128 130 62 190 -28 25
-53 33 -90 27 -11 -1 -10 4 6 22 30 33 34 51 23 94 -13 46 -50 84 -83 84 -38
0 -93 -30 -105 -57 -16 -34 -14 -85 4 -110 17 -24 77 -45 101 -36 10 4 6 -8
-10 -32 -14 -21 -26 -43 -26 -50 0 -6 -31 -24 -70 -39 -38 -15 -97 -45 -131
-67 -34 -22 -63 -38 -65 -36 -8 8 48 163 91 252 43 91 134 237 154 249 6 4 31
0 56 -9 65 -22 105 -20 105 4 0 13 -7 19 -17 19 -34 -2 -104 23 -100 35 5 16
19 14 102 -16 64 -24 96 -23 81 1 -3 5 -35 20 -71 33 -36 12 -65 29 -65 36 0
20 21 16 99 -17 40 -17 76 -28 81 -25 14 9 12 35 -2 35 -7 0 -40 13 -73 29
l-60 29 46 1 c34 1 56 -6 84 -25 35 -24 65 -26 65 -5 0 5 -32 19 -70 32 -39
12 -69 28 -67 33 6 17 35 12 123 -21 75 -28 116 -30 100 -5 -3 5 -40 22 -81
37 -41 15 -75 32 -75 37 0 13 45 4 108 -21 62 -25 72 -26 72 -7 0 8 -27 27
-60 42 -33 15 -58 29 -56 31 3 3 48 -9 101 -27 73 -24 100 -29 108 -21 15 15
0 25 -68 47 -82 27 -76 34 29 34 87 0 97 2 94 18 -2 13 -17 18 -66 22 l-63 5
45 38 c45 37 59 67 33 67 -7 0 -46 -28 -86 -61 l-73 -62 26 42 c14 22 26 47
26 56 0 34 -31 11 -71 -55 -24 -38 -47 -70 -51 -70 -10 0 -11 -3 12 56 10 29
16 54 13 58 -18 18 -34 -1 -53 -63 -11 -38 -29 -80 -40 -93 l-20 -23 6 29 c4
17 15 51 24 77 17 46 13 78 -8 65 -6 -3 -25 -50 -42 -104 -18 -53 -37 -101
-42 -107 -12 -12 -4 57 14 118 6 23 12 48 12 56 1 22 -21 24 -33 4 -7 -15 -51
-217 -51 -239 0 -2 -5 -4 -11 -4 -15 0 -5 129 11 161 10 17 9 23 -1 30 -31 20
-59 -60 -59 -168 0 -42 -5 -75 -11 -79 -8 -5 -10 21 -8 91 3 72 1 99 -9 102
-22 8 -31 -40 -27 -147 2 -77 0 -109 -10 -120 -7 -8 -30 -40 -50 -70 -21 -30
-35 -47 -31 -37 7 21 14 78 20 172 3 33 11 74 19 90 8 17 23 48 33 70 53 118
153 255 268 368 90 89 83 87 194 35 114 -53 138 -73 140 -115 4 -54 34 -88 88
-102 39 -10 50 -9 71 4 54 36 62 131 14 179 -25 25 -98 27 -133 4 -21 -14 -26
-13 -63 10 -22 14 -75 42 -118 62 l-78 37 88 60 c104 71 213 130 301 163 l64
23 40 -47 c47 -55 76 -73 83 -53 3 7 -13 33 -35 56 -30 31 -38 47 -31 54 8 8
15 5 26 -9 38 -55 96 -124 105 -124 25 0 17 26 -25 83 -35 48 -42 63 -30 65
15 4 54 -33 55 -53 0 -5 15 -27 34 -48 27 -32 34 -36 44 -24 10 11 6 22 -16
53 -40 55 -55 84 -43 84 6 0 31 -29 56 -65 43 -60 75 -82 75 -53 0 7 -18 38
-41 70 -34 49 -37 58 -21 58 12 0 35 -25 66 -69 57 -84 74 -100 85 -82 6 8 -9
39 -40 84 -27 39 -47 72 -45 74 10 10 36 -14 74 -72 40 -60 62 -74 62 -41 0 8
-16 37 -36 66 -50 73 -17 49 48 -35 50 -65 88 -93 88 -64 0 7 -18 37 -41 66
-22 30 -38 57 -35 60 3 4 37 -15 75 -40 65 -45 101 -58 101 -37 0 5 -23 27
-51 47 -47 35 -48 38 -27 45 13 3 40 6 61 7 31 1 38 4 35 19 -4 18 -15 18
-128 7 l-45 -5 48 25 c26 14 47 30 47 36 0 22 -31 18 -102 -16 -79 -37 -106
-44 -74 -20 47 36 86 77 81 85 -10 16 -20 12 -91 -40 -90 -65 -128 -68 -47 -3
68 55 76 65 60 75 -14 8 -51 -13 -128 -75 -87 -71 -93 -52 -9 26 52 48 70 71
63 78 -7 7 -17 8 -26 3 -19 -11 -90 -79 -140 -133 -21 -22 -42 -41 -48 -41
-17 0 20 57 67 104 31 30 45 50 40 61 -5 14 -8 14 -32 -1 -34 -23 -113 -120
-120 -149 -6 -24 -34 -43 -34 -23 0 16 40 78 72 113 29 31 35 50 19 59 -18 11
-107 -98 -136 -167 -11 -26 -23 -36 -57 -46 -55 -17 -209 -87 -270 -124 -26
-16 -52 -26 -58 -22 -11 7 -14 103 -4 129 3 9 16 16 29 16 25 0 84 19 102 32
19 15 4 39 -17 28 -28 -15 -100 -29 -105 -20 -9 14 20 27 93 40 71 13 104 31
82 45 -6 4 -42 1 -80 -6 -39 -7 -73 -9 -77 -5 -13 13 13 25 72 32 81 9 110 20
96 38 -8 9 -23 11 -58 5 -27 -4 -61 -8 -78 -8 -48 -1 -10 15 73 30 78 13 85
17 72 38 -6 11 -20 11 -75 2 -37 -7 -69 -10 -72 -8 -11 12 31 35 74 41 119 16
133 20 133 42 0 17 -15 16 -125 -5 -27 -5 -52 -7 -54 -5 -12 12 23 26 90 37
53 9 74 17 74 27 0 17 -40 21 -92 9 -18 -4 -33 -3 -33 1 0 4 17 11 38 16 20 4
39 8 42 9 3 1 29 5 58 9 48 7 75 26 59 42 -4 5 -51 -2 -135 -20 -38 -8 -15 12
64 55 67 37 88 59 66 73 -4 2 -31 -8 -60 -24 -57 -31 -59 -29 -37 23 24 58 16
100 -12 65z m56 -1045 c28 -24 34 -59 15 -95 -14 -28 -19 -30 -52 -24 -44 6
-72 37 -72 77 0 51 66 77 109 42z m-621 -740 c10 -21 17 -45 15 -54 -8 -36
-96 -45 -120 -13 -16 22 -7 73 15 90 9 8 29 14 44 14 22 0 31 -8 46 -37z m97
-200 c20 -26 18 -56 -6 -87 -28 -36 -99 -38 -122 -3 -13 20 -13 28 -1 62 7 22
20 45 29 51 21 15 82 2 100 -23z m-1331 -252 c35 -38 -7 -24 -45 15 l-34 36
30 -15 c17 -8 39 -24 49 -36z m938 -565 c34 -39 37 -47 33 -92 -2 -27 -4 -67
-5 -89 -1 -22 -4 -33 -7 -25 -3 8 -23 50 -44 93 -40 80 -58 139 -65 217 l-4
45 27 -54 c15 -29 44 -72 65 -95z m279 -1067 c22 -33 60 -84 85 -114 24 -30
39 -55 32 -55 -7 1 -49 9 -93 20 -44 10 -82 17 -84 14 -2 -2 -15 22 -27 53
-13 32 -32 69 -42 83 -15 22 -16 32 -6 80 6 30 9 77 7 105 l-3 49 45 -88 c25
-48 64 -115 86 -147z m3967 139 c1 -40 6 -86 10 -103 7 -23 4 -37 -15 -64 -13
-19 -28 -51 -35 -73 -13 -43 -26 -53 -80 -62 -21 -3 -57 -10 -80 -16 -24 -5
-47 -10 -51 -10 -4 0 17 30 47 68 61 76 140 201 176 280 13 28 24 52 25 52 0
0 2 -33 3 -72z m679 -480 c-3 -8 -6 -5 -6 6 -1 11 2 17 5 13 3 -3 4 -12 1 -19z
m-2967 -215 c88 -34 98 -47 82 -102 -14 -45 -51 -76 -99 -84 -35 -6 -127 34
-234 99 -55 35 -57 36 -41 56 10 11 39 31 66 44 63 29 126 26 226 -13z m192
-104 c24 -32 47 -132 54 -232 8 -109 5 -113 -54 -83 -55 28 -130 106 -157 162
l-18 37 31 26 c36 31 62 80 62 116 0 24 1 25 32 12 17 -7 40 -24 50 -38z m387
-45 c13 -17 21 -41 21 -67 0 -35 -6 -46 -43 -81 -23 -23 -56 -48 -72 -56 -17
-8 -41 -22 -55 -31 -14 -9 -35 -19 -47 -23 -19 -6 -23 -2 -30 36 -18 85 15
151 110 223 64 49 77 49 116 -1z m-817 -4 c29 -17 60 -34 68 -39 25 -14 18
-61 -11 -83 -37 -28 -93 -26 -162 5 l-58 27 18 31 c21 36 70 89 83 89 5 0 33
-14 62 -30z m196 -80 c19 0 32 -5 32 -12 0 -7 6 -25 14 -39 12 -23 11 -28 -16
-54 -15 -16 -28 -32 -28 -36 0 -27 -118 2 -121 30 -1 6 -2 17 -3 24 -1 6 9 22
21 35 13 13 23 32 23 44 0 16 4 19 23 14 12 -3 37 -6 55 -6z m750 -79 l22 -46
-31 -28 c-36 -33 -72 -33 -77 0 -2 13 -13 29 -24 37 l-20 15 21 35 c19 29 28
35 55 34 28 -1 35 -7 54 -47z m-1043 0 c48 -18 50 -21 53 -60 3 -39 2 -41 -26
-41 -25 0 -55 17 -98 55 -9 7 -8 17 4 38 9 15 16 27 17 27 0 0 23 -9 50 -19z
m1740 -30 c-6 -5 -25 10 -25 20 0 5 6 4 14 -3 8 -7 12 -15 11 -17z m-1602 0
c6 -25 79 -71 111 -71 21 0 27 -7 36 -41 15 -55 5 -64 -76 -63 -91 1 -107 18
-112 119 -4 70 -3 75 16 75 11 0 22 -8 25 -19z m276 -44 c25 -23 57 -49 70
-58 23 -15 24 -17 12 -64 -7 -27 -18 -64 -26 -82 -17 -39 -29 -37 -84 19 -46
46 -75 112 -68 156 5 30 31 72 45 72 3 0 26 -19 51 -43z m490 19 c11 -13 15
-40 12 -79 -1 -21 -91 -109 -106 -104 -19 6 -55 70 -55 97 0 22 11 34 58 63
64 40 74 43 91 23z m261 -38 c0 -17 -38 -83 -59 -102 -20 -18 -26 -19 -69 -7
-86 22 -122 61 -58 61 25 0 45 10 77 38 40 36 46 38 76 29 18 -6 33 -14 33
-19z m784 -36 c-1 -56 -13 -68 -51 -50 -54 26 -34 103 26 96 24 -3 26 -7 25
-46z m-1972 -2 c24 -10 54 -17 66 -14 17 5 22 1 28 -22 4 -16 13 -37 22 -46 8
-10 12 -24 8 -33 -6 -16 -16 -16 -73 6 -39 15 -103 80 -103 105 0 29 -3 29 52
4z m-552 -61 c29 -53 -24 -98 -75 -65 -30 20 -31 26 -4 60 25 32 64 34 79 5z
m1541 -26 c34 -20 35 -24 12 -51 -24 -26 -82 -45 -98 -32 -26 21 -23 46 6 66
16 10 29 22 29 27 0 12 20 8 51 -10z m-981 -72 c0 -27 9 -42 40 -72 22 -21 40
-41 40 -44 0 -3 -11 -5 -25 -5 -28 0 -110 69 -120 101 -4 10 1 32 11 48 15 25
20 27 36 18 12 -8 18 -24 18 -46z m340 52 c0 -5 13 -22 29 -39 31 -33 29 -52
-8 -59 -34 -6 -85 18 -110 54 -12 17 -21 31 -19 32 2 0 18 2 37 5 19 2 37 6
39 9 8 8 32 6 32 -2z m-146 -26 c3 -12 21 -41 40 -64 30 -34 33 -43 22 -52
-33 -28 -132 -3 -183 45 -41 39 -36 57 12 48 28 -5 36 -2 50 20 21 32 51 34
59 3z m937 6 c14 -14 -50 -69 -101 -84 -58 -18 -74 1 -32 36 17 14 34 34 37
44 4 15 14 19 45 17 22 -1 45 -7 51 -13z m115 -122 c-18 -20 -79 -41 -118 -41
-17 0 -29 8 -37 27 -18 38 -1 50 48 33 34 -11 46 -11 78 2 42 16 54 7 29 -21z
m-1053 -50 c17 -16 -24 -32 -85 -33 -72 -2 -104 6 -112 28 -4 11 -2 12 14 4
27 -15 73 -12 96 5 19 14 69 12 87 -4z"/>
<path d="M4785 6111 c-3 -6 4 -34 15 -63 11 -29 20 -55 20 -56 0 -2 -24 10
-53 26 -37 21 -58 27 -68 21 -11 -8 -9 -13 11 -30 14 -12 45 -32 70 -44 25
-13 54 -30 65 -39 23 -17 32 -18 -84 4 -54 10 -80 3 -67 -18 3 -5 49 -18 101
-28 96 -18 135 -41 48 -28 -27 3 -50 6 -53 6 -22 0 -30 -4 -30 -16 0 -15 19
-21 107 -31 48 -6 73 -19 61 -31 -3 -2 -40 1 -83 7 -54 7 -81 7 -88 0 -17 -17
-3 -23 80 -37 113 -19 123 -23 123 -40 0 -15 -29 -14 -108 6 -26 7 -34 5 -39
-7 -8 -21 8 -29 93 -43 85 -15 104 -36 22 -24 -84 12 -102 11 -106 -7 -2 -13
8 -18 45 -24 26 -3 64 -9 83 -12 42 -6 60 -27 27 -31 -12 -1 -45 3 -73 11 -55
14 -74 12 -74 -8 0 -17 11 -21 103 -36 50 -8 77 -17 77 -26 0 -16 -34 -16 -82
1 -38 14 -48 12 -48 -9 0 -16 37 -32 93 -40 39 -6 47 -11 52 -34 6 -26 -1
-110 -10 -119 -2 -2 -17 5 -33 16 -41 30 -226 119 -286 138 -47 15 -53 21 -78
73 -31 64 -93 141 -114 141 -23 0 -16 -24 19 -63 44 -51 81 -117 65 -117 -7 0
-24 20 -37 44 -26 51 -116 146 -137 146 -27 0 -14 -26 41 -84 49 -51 68 -86
48 -86 -5 0 -48 41 -97 90 -49 50 -93 90 -98 90 -5 0 -11 -6 -14 -14 -3 -9 11
-30 37 -53 93 -83 130 -138 53 -77 -118 93 -152 114 -163 100 -10 -11 0 -23
49 -61 33 -27 60 -52 60 -56 0 -16 -42 7 -100 55 -55 44 -80 52 -80 23 0 -7
21 -27 46 -46 24 -19 43 -36 41 -38 -3 -2 -41 12 -86 32 -45 20 -86 33 -91 30
-17 -10 1 -34 36 -47 69 -25 37 -30 -88 -13 -29 3 -46 -11 -31 -26 7 -7 62
-16 113 -18 8 -1 -9 -17 -38 -37 -49 -35 -63 -56 -43 -68 5 -3 40 17 77 44 98
71 104 69 44 -16 -45 -64 -46 -69 -25 -78 10 -3 31 18 67 69 62 86 107 123 54
43 -20 -29 -36 -58 -36 -65 0 -33 23 -17 67 47 29 42 55 70 66 70 13 0 6 -16
-34 -70 -29 -40 -49 -77 -45 -85 9 -24 28 -7 86 76 30 43 61 79 68 79 20 0 14
-13 -28 -70 -22 -29 -40 -60 -40 -67 0 -31 31 -8 79 58 63 86 80 85 21 -1 -39
-58 -47 -96 -18 -85 8 3 31 34 53 70 31 49 46 64 63 65 22 0 21 -3 -22 -64
-50 -70 -55 -86 -28 -86 10 0 38 29 66 69 31 44 54 67 63 64 16 -6 10 -16 -46
-75 -34 -37 -32 -44 9 -38 14 2 25 13 77 79 18 22 22 23 59 11 98 -32 304
-145 377 -206 l29 -24 -29 -1 c-44 -1 -73 -7 -140 -31 -51 -18 -60 -24 -51
-36 6 -7 13 -32 16 -55 5 -57 15 -63 11 -7 l-4 44 60 19 c33 10 89 20 125 22
l65 3 95 -97 c93 -94 195 -232 246 -332 43 -86 62 -152 68 -239 3 -47 9 -96
12 -110 4 -15 -16 6 -47 50 -29 41 -52 80 -50 85 2 6 6 42 8 80 5 84 -7 150
-27 150 -12 0 -15 -18 -15 -90 0 -114 -19 -125 -21 -13 -2 94 -19 171 -37 165
-13 -4 -13 -20 -2 -132 6 -53 5 -67 -4 -59 -7 6 -14 29 -17 52 -5 42 -41 192
-48 199 -2 2 -10 1 -18 -2 -13 -5 -13 -13 -2 -57 45 -173 28 -187 -25 -20 -18
56 -37 102 -42 102 -19 0 -19 -27 1 -89 11 -35 20 -69 20 -75 -1 -27 -41 41
-62 105 -20 63 -38 83 -52 60 -3 -5 0 -24 8 -42 42 -102 26 -102 -35 1 -23 39
-48 70 -55 70 -21 0 -17 -26 13 -73 20 -32 22 -39 7 -27 -10 8 -21 17 -24 20
-32 34 -93 71 -108 65 -14 -5 -8 -15 37 -56 l54 -49 -56 0 c-32 0 -60 0 -63 1
-10 1 -23 -24 -18 -33 3 -4 49 -8 102 -8 104 0 109 -7 22 -35 -64 -20 -78 -31
-63 -46 7 -7 37 -2 103 21 51 17 95 29 97 26 2 -2 -21 -15 -51 -29 -33 -15
-56 -32 -56 -41 0 -21 4 -20 75 9 60 25 105 32 105 17 0 -5 -29 -19 -64 -31
-79 -28 -107 -47 -88 -59 8 -6 38 0 80 16 99 36 118 41 132 32 14 -9 -14 -23
-92 -49 -21 -7 -38 -19 -38 -27 0 -19 13 -18 99 11 41 14 76 23 79 20 4 -4
-49 -30 -117 -56 -22 -9 -23 -12 -10 -25 14 -13 24 -11 88 16 67 29 111 34 97
11 -4 -5 -35 -19 -71 -31 -37 -12 -65 -27 -65 -35 0 -24 22 -22 99 6 70 27 91
29 91 9 0 -11 -57 -30 -90 -30 -16 0 -30 -7 -34 -15 -9 -24 40 -30 100 -11 30
9 58 15 62 12 12 -7 93 -130 132 -201 25 -44 28 -55 13 -42 -39 34 -91 15
-107 -40 -10 -33 10 -61 51 -72 32 -9 41 -8 56 8 11 10 20 30 20 44 1 14 5 23
8 19 6 -6 69 -178 69 -186 0 -2 -17 2 -37 10 -21 7 -50 13 -65 14 -17 0 -31 8
-38 21 -14 26 -68 59 -97 59 -12 0 -34 -11 -49 -23 -52 -45 -24 -126 50 -145
43 -12 64 -4 83 29 15 25 22 28 54 24 64 -8 106 -32 118 -66 27 -77 44 -254
38 -399 -7 -170 -20 -224 -80 -343 l-44 -87 -1 75 c-1 42 -4 80 -7 84 -2 5 13
28 35 52 66 71 110 179 73 179 -4 0 -23 -29 -41 -64 -33 -63 -72 -111 -72 -87
0 6 16 35 35 65 51 75 78 151 61 165 -16 14 -26 2 -45 -54 -17 -50 -64 -121
-69 -106 -2 7 7 35 21 64 33 70 71 186 64 193 -16 16 -36 -11 -61 -83 -16 -43
-33 -82 -38 -88 -13 -12 -9 9 23 127 18 70 20 91 11 100 -17 17 -27 1 -48 -86
-12 -47 -19 -64 -25 -54 -10 17 -7 32 17 118 13 46 14 64 5 73 -15 15 -25 2
-41 -56 -20 -75 -30 -65 -30 32 0 53 -4 93 -11 96 -15 10 -22 0 -24 -40 -4
-53 -11 -52 -24 2 -16 64 -33 94 -49 84 -10 -6 -9 -18 3 -57 20 -66 19 -69
-12 -48 -51 33 -84 47 -93 38 -14 -14 -1 -27 67 -68 67 -41 116 -87 78 -72
-54 21 -139 36 -149 26 -16 -16 3 -27 94 -50 91 -23 130 -39 95 -39 -11 0 -37
4 -59 8 -21 5 -45 7 -53 4 -29 -11 -5 -27 63 -41 66 -13 94 -26 94 -42 0 -4
-39 1 -87 11 -67 16 -88 17 -94 7 -13 -21 -2 -26 101 -50 76 -17 100 -26 100
-38 0 -15 -5 -15 -67 0 -72 18 -83 17 -83 -5 0 -8 18 -19 43 -25 108 -27 127
-33 127 -41 0 -5 -10 -7 -22 -4 -57 13 -123 23 -130 19 -5 -3 -8 -11 -8 -18 0
-8 32 -19 84 -31 49 -10 87 -23 90 -31 7 -19 -23 -18 -96 2 -32 9 -61 14 -65
11 -16 -17 13 -35 86 -52 44 -11 83 -25 85 -32 7 -18 -25 -16 -74 3 -41 17
-77 13 -64 -7 8 -14 62 -37 105 -44 18 -3 35 -8 38 -11 5 -5 4 -207 -2 -251
-7 -53 7 -38 26 30 27 90 79 198 138 286 29 42 57 79 62 82 6 4 6 8 -1 10 -6
3 -6 25 -2 59 8 54 5 306 -3 345 -3 11 -8 40 -12 65 -9 57 -38 169 -64 243
l-20 58 31 32 c16 18 44 55 60 84 23 41 36 53 61 58 44 10 152 63 173 86 13
14 15 22 6 31 -8 8 -24 3 -59 -20 -27 -17 -68 -38 -91 -46 -41 -15 -42 -15
-32 4 6 11 17 20 24 20 33 0 159 82 179 116 17 30 -23 26 -58 -5 -31 -27 -105
-71 -119 -71 -15 0 10 32 43 53 21 14 66 48 100 77 49 41 60 54 51 65 -9 11
-26 3 -88 -47 -42 -33 -78 -56 -80 -50 -2 6 31 43 72 83 42 39 76 78 76 85 0
31 -23 21 -74 -30 -30 -31 -56 -56 -58 -56 -3 0 -5 7 -5 15 0 8 27 41 59 72
32 32 58 63 58 70 0 27 -22 21 -65 -18 -25 -23 -45 -37 -45 -30 0 6 18 41 41
77 39 64 45 100 16 88 -8 -3 -24 -23 -36 -44 -12 -22 -24 -40 -25 -40 -2 0 6
37 17 82 20 79 19 90 -10 89 -4 0 -15 -28 -24 -63 l-16 -63 -27 53 c-25 50
-49 72 -63 58 -4 -3 12 -45 35 -93 23 -48 39 -89 37 -92 -3 -3 -29 19 -58 47
-52 51 -77 64 -77 40 0 -7 33 -45 72 -85 40 -40 68 -73 62 -73 -6 0 -23 14
-40 31 -40 42 -64 55 -75 38 -5 -9 12 -31 53 -69 34 -31 59 -61 57 -68 -2 -7
-31 14 -68 48 -60 56 -81 65 -81 36 0 -7 31 -42 70 -79 48 -46 68 -71 64 -82
-5 -13 -17 -5 -56 35 -49 49 -78 63 -78 38 0 -7 18 -24 39 -37 37 -23 93 -101
72 -101 -5 0 -31 20 -58 45 -48 44 -67 53 -77 36 -5 -8 63 -81 106 -113 13 -9
15 -17 8 -28 -8 -12 -20 -4 -69 44 -52 51 -61 57 -67 41 -6 -13 8 -32 54 -77
45 -43 60 -64 54 -75 -7 -11 -18 -3 -52 36 -34 41 -45 49 -57 40 -11 -10 -11
-16 3 -38 10 -14 30 -38 47 -53 22 -20 28 -33 24 -50 -7 -26 -64 -98 -77 -98
-11 0 -54 134 -74 230 -10 45 -13 116 -11 230 2 147 6 178 34 283 50 192 130
364 166 360 11 -1 40 -5 64 -8 31 -4 47 -2 52 7 15 22 10 25 -47 31 -56 6 -72
12 -61 23 3 3 36 -2 72 -11 37 -9 74 -14 82 -11 29 11 6 31 -56 46 -52 13 -71
23 -58 32 1 1 35 -7 75 -17 40 -9 76 -15 79 -12 15 16 -11 37 -62 48 -31 7
-58 15 -60 19 -2 3 24 1 58 -7 80 -16 94 -16 101 2 5 14 -29 28 -93 38 -26 4
-42 27 -19 27 7 0 45 -9 85 -19 55 -14 73 -16 76 -6 6 14 -3 30 -18 31 -33 4
-105 28 -105 35 0 10 22 6 96 -16 43 -13 72 -6 60 14 -4 6 -28 17 -54 25 -62
19 -28 20 45 1 75 -20 95 -19 91 2 -2 12 -24 22 -68 34 -36 9 -58 18 -50 19 8
1 31 4 50 6 108 11 117 14 105 34 -4 7 -24 9 -50 6 -24 -2 -46 -2 -49 2 -4 3
8 20 25 38 22 22 30 38 25 50 -6 15 -15 10 -57 -32 -48 -46 -50 -47 -35 -16
16 32 14 52 -4 52 -6 0 -26 -31 -45 -70 -19 -38 -37 -70 -39 -70 -2 0 1 21 6
46 7 32 7 49 -1 57 -16 16 -22 5 -37 -70 -8 -37 -19 -72 -25 -78 -11 -10 -9
10 6 82 4 18 5 40 1 49 -13 33 -34 -6 -52 -96 -10 -50 -22 -90 -26 -90 -4 0
-6 6 -3 13 2 6 6 36 10 66 3 29 7 57 10 60 2 4 0 13 -5 21 -8 13 -11 13 -24 0
-10 -10 -17 -48 -22 -115 -3 -55 -9 -104 -13 -110 -9 -15 -17 75 -10 117 7 42
-10 68 -29 45 -14 -16 -18 -126 -8 -187 6 -35 5 -42 -4 -33 -7 6 -13 43 -15
85 -2 58 -5 74 -19 76 -9 2 -16 0 -17 -5 0 -4 -3 -26 -5 -48 -2 -21 3 -68 12
-103 11 -42 13 -67 6 -75 -30 -36 -93 -173 -136 -291 -6 -18 -9 -17 -37 10
-52 49 -54 60 -21 102 35 44 44 75 22 79 -9 2 -26 -14 -40 -37 -13 -22 -30
-40 -38 -40 -16 0 -10 11 41 72 24 29 37 53 34 63 -9 21 -22 19 -40 -7 -22
-33 -63 -78 -71 -78 -16 0 -2 27 39 72 25 28 45 56 45 64 0 27 -28 13 -66 -32
-21 -25 -40 -41 -42 -35 -6 18 28 70 58 88 33 19 38 31 15 39 -9 4 -25 -6 -41
-25 -14 -17 -35 -42 -45 -54 -14 -16 -18 -18 -19 -7 0 9 25 46 56 84 44 53 54
70 44 79 -9 9 -24 -1 -66 -48 -30 -33 -54 -55 -54 -49 0 11 40 66 73 98 20 20
22 32 6 42 -6 3 -29 -11 -51 -32 -36 -34 -34 -30 15 31 44 55 53 73 44 83 -12
15 -18 9 -75 -62 -12 -16 -25 -27 -27 -24 -3 3 6 36 20 73 25 65 27 95 6 95
-5 0 -17 -23 -27 -50 -20 -54 -25 -54 -44 3 -8 26 -17 37 -31 37 -24 0 -24 2
6 -73 l25 -62 -25 28 c-24 27 -55 36 -55 16 0 -7 17 -33 37 -58 68 -85 68 -84
-14 -25 -21 15 -43 12 -43 -5 0 -4 27 -29 60 -54 33 -26 60 -52 60 -57 0 -14
-25 0 -69 39 -31 27 -61 32 -61 10 0 -5 28 -30 62 -57 61 -47 103 -83 83 -71
-5 4 -27 16 -48 28 -21 12 -49 28 -61 36 -20 14 -25 14 -35 1 -10 -12 -2 -21
46 -54 32 -21 78 -49 101 -61 24 -12 41 -25 38 -28 -7 -7 -61 15 -110 45 -27
17 -41 21 -49 13 -22 -22 76 -87 160 -105 18 -4 35 -12 39 -17 8 -14 -41 -1
-105 27 -50 23 -71 24 -71 4 0 -16 87 -59 148 -71 42 -9 64 -19 67 -30 3 -9
28 -39 55 -66 l49 -49 -14 -55 c-13 -46 -27 -140 -28 -189 0 -12 -1 -12 -9 0
-58 101 -122 202 -158 252 -58 78 -196 216 -281 280 -66 48 -67 50 -59 84 5
20 6 65 4 100 -4 61 -3 65 40 126 49 71 79 135 72 155 -10 25 -25 12 -54 -49
-31 -68 -71 -122 -72 -99 0 7 17 41 37 74 44 73 69 165 47 174 -19 7 -24 2
-30 -30 -6 -34 -38 -107 -58 -132 -23 -29 -21 1 3 58 10 24 28 76 39 115 17
59 18 73 7 82 -17 14 -22 4 -56 -102 -13 -43 -27 -78 -32 -78 -8 0 -6 17 19
132 17 80 14 111 -9 102 -8 -3 -19 -34 -26 -74 -13 -68 -24 -93 -33 -67 -7 18
-3 55 11 115 15 61 9 91 -14 72 -8 -7 -15 -22 -16 -34 0 -11 -7 -37 -14 -56
-15 -40 -15 -41 -20 80 -3 83 -2 80 -20 80 -15 0 -19 -22 -16 -80 1 -14 -13
10 -30 53 -29 74 -41 88 -54 68z m835 -1936 c18 -21 8 -51 -15 -47 -29 5 -34
14 -24 40 10 26 22 28 39 7z m-60 -130 c33 -17 40 -54 15 -75 -12 -10 -21 -10
-45 0 -41 17 -53 41 -34 68 18 26 26 27 64 7z"/>
<path d="M2243 5260 c-29 -12 -56 -55 -56 -89 0 -32 38 -88 66 -97 52 -16 107
38 107 106 -1 39 -14 61 -47 78 -25 14 -40 14 -70 2z m65 -42 c28 -28 3 -108
-34 -108 -20 0 -54 41 -54 66 0 40 61 69 88 42z"/>
<path d="M4593 5260 c-44 -10 -61 -25 -72 -67 -17 -62 12 -103 80 -112 41 -6
54 -24 22 -29 -51 -9 -72 -33 -87 -104 -8 -36 1 -56 33 -73 60 -31 131 3 131
62 0 20 3 24 18 17 9 -4 38 -9 63 -12 51 -4 91 14 110 50 9 17 8 18 -10 9 -48
-26 -133 6 -145 54 -13 51 50 124 96 112 19 -5 20 -5 6 10 -17 17 -92 23 -119
10 -13 -6 -19 -1 -27 22 -13 38 -56 60 -99 51z m57 -50 c32 -32 13 -90 -30
-90 -47 0 -60 10 -60 43 0 59 51 86 90 47z m20 -264 c0 -8 -8 -24 -18 -36 -14
-17 -23 -20 -46 -14 -15 3 -30 13 -33 20 -8 21 17 82 35 87 18 4 62 -36 62
-57z"/>
<path d="M2311 5031 c-29 -40 -27 -75 5 -100 74 -59 152 28 93 103 -29 36 -71
35 -98 -3z m74 -30 c8 -26 -4 -51 -25 -51 -25 0 -33 16 -26 46 8 29 42 33 51
5z"/>
<path d="M2526 4547 c-16 -12 -18 -33 -18 -215 -1 -193 5 -232 31 -232 28 1
36 23 36 107 l0 87 98 1 c53 1 98 -3 98 -7 1 -4 2 -44 3 -88 1 -60 5 -83 16
-90 44 -28 51 -2 51 211 0 107 0 199 0 206 -1 7 -10 17 -20 23 -36 19 -47 -8
-46 -104 l1 -87 -101 3 -100 3 0 82 c0 61 -4 86 -15 98 -13 13 -19 13 -34 2z"/>
<path d="M2891 4551 c-10 -6 -12 -28 -10 -82 5 -87 28 -128 90 -159 l39 -20 0
-84 c0 -87 11 -113 43 -100 22 8 24 18 23 107 -2 78 -1 79 29 92 68 29 104 97
100 189 -2 54 -17 76 -42 60 -12 -8 -17 -27 -19 -73 -1 -53 -6 -67 -29 -91
-33 -35 -62 -41 -108 -23 -41 17 -61 56 -60 117 1 65 -20 90 -56 67z"/>
<path d="M3390 4548 c-72 -21 -138 -86 -158 -159 -39 -146 80 -294 230 -284
111 8 197 88 211 198 7 55 -17 68 -124 66 -97 -2 -122 -11 -117 -42 3 -20 9
-22 86 -25 80 -3 83 -4 76 -25 -17 -57 -100 -108 -163 -101 -158 20 -196 225
-54 298 61 31 130 18 190 -34 28 -25 38 -28 53 -20 11 6 20 17 20 24 0 17 -73
84 -103 95 -39 15 -111 19 -147 9z"/>
<path d="M3863 4543 c-113 -38 -179 -171 -142 -284 67 -198 344 -205 426 -12
19 46 17 100 -4 112 -18 9 -187 12 -210 4 -16 -6 -23 -39 -10 -52 6 -6 46 -11
89 -11 85 0 87 -3 46 -63 -41 -58 -142 -79 -204 -43 -124 74 -92 270 48 292
55 9 103 -3 137 -35 38 -36 55 -43 70 -28 19 19 12 44 -20 71 -70 59 -147 75
-226 49z"/>
<path d="M4215 4544 c-18 -19 -18 -410 1 -429 16 -16 228 -19 257 -4 17 10 24
48 10 50 -5 1 -51 3 -104 4 -53 1 -100 4 -105 8 -8 4 -9 40 -5 102 1 12 17 15
80 15 88 0 111 12 91 49 -9 19 -20 21 -90 21 -69 0 -80 2 -81 18 -1 19 -1 80
0 99 1 9 33 13 109 15 101 3 107 4 110 25 2 13 -4 25 -15 31 -28 15 -242 11
-258 -4z"/>
<path d="M1693 4369 c-28 -15 -52 -65 -47 -98 13 -71 105 -100 151 -47 28 33
31 94 6 125 -21 25 -78 35 -110 20z m71 -32 c21 -16 24 -60 6 -82 -26 -31 -90
-8 -90 33 0 26 29 62 49 62 9 0 25 -6 35 -13z"/>
<path d="M6152 4278 c-8 -11 -25 -71 -27 -100 0 -3 -4 -10 -8 -15 -5 -4 -8 -3
-7 2 7 33 -1 75 -15 75 -19 0 -20 -2 -11 -100 l6 -65 -25 53 c-44 93 -61 58
-24 -50 12 -35 16 -65 11 -70 -5 -5 -16 17 -27 52 -19 64 -30 79 -46 63 -6 -6
2 -44 22 -102 17 -51 29 -94 26 -97 -2 -3 -20 29 -38 71 -24 53 -39 75 -52 75
-24 0 -18 -18 38 -132 23 -48 40 -89 37 -92 -7 -7 -49 55 -68 100 -15 35 -44
47 -44 18 0 -27 31 -87 72 -136 21 -26 38 -50 38 -54 0 -15 -53 42 -77 84 -29
49 -59 58 -48 15 8 -34 78 -128 105 -143 15 -8 20 -21 20 -55 0 -25 5 -64 12
-88 l11 -43 -65 -67 c-36 -36 -76 -80 -89 -98 -12 -18 15 6 62 53 96 97 215
188 309 237 l65 33 44 -41 c24 -23 50 -41 57 -41 30 0 23 24 -17 61 -23 21
-39 42 -35 46 4 4 32 -19 62 -51 45 -47 57 -56 69 -46 12 10 7 21 -35 69 -27
31 -44 58 -38 60 6 2 34 -22 62 -53 49 -55 76 -70 76 -43 0 7 -14 26 -31 43
-17 16 -35 36 -40 46 -7 13 -5 15 11 11 19 -5 28 -15 80 -83 17 -23 19 -23 26
-7 5 14 -4 30 -35 61 -41 42 -49 56 -32 56 10 0 11 -1 84 -79 27 -28 53 -51
58 -51 22 0 5 38 -37 81 -25 26 -41 49 -36 53 5 3 29 -17 53 -44 24 -28 51
-50 61 -50 27 0 22 15 -19 62 -46 53 -5 20 53 -42 34 -36 45 -43 55 -32 11 10
5 20 -26 54 -22 24 -44 46 -50 51 -21 17 40 -6 87 -34 27 -16 54 -29 59 -29
23 0 1 36 -34 55 -20 11 -37 23 -37 26 0 3 26 11 58 18 31 7 68 20 81 28 39
25 5 35 -60 18 -69 -19 -70 -19 -31 6 17 12 32 25 32 30 0 24 -33 18 -85 -16
-32 -20 -59 -34 -61 -32 -2 2 10 16 26 32 31 30 39 55 17 55 -7 0 -35 -22 -61
-49 -27 -27 -58 -52 -69 -55 -14 -3 -3 12 32 48 45 45 50 54 37 65 -12 10 -25
3 -74 -46 -108 -107 -124 -111 -37 -9 43 51 51 67 41 75 -15 12 -64 -35 -125
-121 -19 -27 -36 -48 -38 -48 -12 0 3 33 37 78 38 50 50 82 31 82 -17 0 -79
-81 -106 -137 -14 -31 -28 -53 -31 -50 -6 6 29 79 58 119 18 27 17 48 -3 48
-17 0 -69 -82 -85 -135 -16 -51 -20 -55 -88 -89 -39 -20 -108 -63 -153 -96
-46 -32 -85 -54 -89 -49 -3 5 -8 34 -11 64 -5 47 -3 55 11 55 26 0 96 39 96
54 0 23 -12 26 -42 10 -37 -19 -78 -27 -78 -16 0 5 34 19 75 32 68 21 86 35
69 53 -3 3 -22 0 -42 -7 -21 -7 -52 -16 -71 -19 -62 -13 -16 19 49 33 63 13
95 35 67 46 -13 5 -54 -3 -115 -22 -14 -5 -14 -3 2 10 10 8 43 20 72 26 55 12
60 16 46 37 -5 8 -21 6 -62 -8 -64 -22 -80 -24 -60 -5 8 7 50 24 93 36 68 21
93 39 70 53 -5 3 -35 -4 -68 -14 -33 -10 -67 -18 -75 -16 -14 2 30 20 105 43
43 14 40 40 -4 36 -19 -2 -46 -8 -60 -14 -18 -6 -23 -6 -16 1 6 5 44 20 85 33
51 16 76 29 78 41 4 22 -12 22 -82 -3 -68 -23 -65 -13 15 40 32 23 59 47 59
55 0 23 -22 18 -67 -15 l-41 -30 9 40 c14 64 14 80 0 80 -5 0 -13 -6 -19 -12z"/>
<path d="M5386 4241 c-25 -28 -28 -59 -6 -81 46 -46 120 -28 120 28 0 58 -77
94 -114 53z m64 -26 c15 -18 6 -45 -13 -45 -8 0 -20 7 -27 15 -10 12 -10 18 0
30 16 19 24 19 40 0z"/>
<path d="M2446 3765 c-11 -12 -14 -54 -14 -212 1 -109 5 -205 9 -214 12 -23
224 -21 258 3 36 25 61 69 61 107 0 36 -31 95 -56 105 -13 5 -13 9 1 35 30 58
8 129 -51 167 -36 24 -187 30 -208 9z m184 -75 c11 -11 20 -31 20 -45 0 -43
-33 -65 -95 -65 -59 0 -57 -2 -57 65 0 67 -2 65 57 65 42 0 60 -5 75 -20z m27
-184 c27 -9 45 -56 30 -82 -16 -30 -27 -34 -109 -34 l-78 0 0 59 c0 33 4 61
10 63 17 5 125 1 147 -6z"/>
<path d="M2939 3764 c-157 -47 -204 -260 -82 -376 104 -99 277 -70 345 59 94
179 -68 375 -263 317z m151 -76 c57 -39 75 -72 75 -138 0 -92 -54 -150 -147
-158 -44 -3 -59 0 -87 20 -77 52 -100 132 -62 210 39 83 149 115 221 66z"/>
<path d="M3275 3770 c-8 -14 -8 -405 0 -431 8 -24 41 -25 53 -1 5 9 8 45 7 80
-1 51 2 65 20 82 l21 19 68 -90 c77 -101 97 -117 120 -94 21 21 14 35 -71 144
l-73 95 48 50 c110 115 117 127 79 150 -15 9 -23 5 -49 -24 -47 -53 -158 -170
-161 -170 -1 0 -2 37 -1 83 0 45 -3 90 -8 100 -10 19 -43 23 -53 7z"/>
<path d="M3684 3765 c-64 -26 -93 -106 -65 -174 16 -37 49 -60 109 -75 59 -14
84 -50 62 -90 -27 -51 -92 -46 -110 9 -22 68 -70 71 -70 4 0 -31 7 -45 35 -74
20 -19 42 -36 50 -36 8 -1 25 -2 38 -3 68 -6 128 54 129 127 2 72 -40 116
-125 131 -46 9 -72 42 -58 78 24 64 86 62 117 -4 22 -48 35 -55 57 -33 27 27
-5 109 -53 135 -30 16 -84 19 -116 5z"/>
<path d="M3913 3768 c-4 -7 -8 -104 -8 -216 0 -170 2 -205 15 -216 11 -9 50
-13 138 -12 130 1 152 9 131 48 -8 16 -24 18 -114 18 l-105 0 0 64 0 63 71 -1
c84 -1 109 6 109 34 0 28 -29 37 -111 35 l-69 -2 0 64 0 63 33 1 c17 1 65 2
105 2 78 2 99 15 81 49 -9 16 -25 18 -139 18 -92 0 -131 -4 -137 -12z"/>
<path d="M4237 3774 c-4 -4 -7 -103 -7 -219 0 -221 4 -244 43 -229 23 8 24 16
23 171 -1 78 1 139 4 137 2 -3 52 -73 110 -156 100 -144 128 -171 148 -145 5
7 9 109 8 227 l-1 215 -30 0 -30 0 -5 -157 -5 -157 -106 157 c-100 147 -130
178 -152 156z"/>
<path d="M3354 2961 c-2 -2 -4 -13 -4 -23 0 -17 12 -18 174 -18 161 0 174 1
171 18 -2 9 -4 19 -4 22 -1 6 -331 7 -337 1z"/>
<path d="M2556 2878 c-18 -26 -22 -63 -5 -53 6 4 8 9 5 12 -3 3 4 19 15 34 11
16 16 29 10 29 -5 0 -17 -10 -25 -22z"/>
<path d="M2616 2740 c32 -43 25 -95 -18 -140 -56 -59 -127 -183 -128 -222 0
-28 15 -21 16 7 3 45 133 244 134 205 1 -8 7 0 15 19 22 49 19 96 -7 123 -13
13 -18 17 -12 8z"/>
<path d="M2757 2668 c5 -27 -43 -132 -118 -260 -16 -27 -25 -48 -21 -48 4 0
26 19 47 42 22 23 30 34 18 24 -13 -11 -23 -14 -23 -8 0 6 4 13 8 16 10 6 112
200 112 213 0 5 -6 18 -14 28 -13 18 -14 18 -9 -7z"/>
<path d="M4268 2640 c-96 -100 -152 -269 -91 -278 12 -2 30 2 40 7 15 9 13 10
-9 5 -45 -10 -49 22 -7 60 19 17 52 54 75 81 107 132 101 238 -8 125z m72 25
c0 -41 -95 -185 -153 -233 -44 -37 36 133 96 202 40 48 57 57 57 31z"/>
<path d="M3435 2624 c-45 -46 -115 -169 -115 -203 0 -27 -78 -70 -91 -50 -4 7
-5 18 -2 24 3 5 0 5 -7 -2 -16 -15 -6 -43 15 -43 9 0 29 7 46 15 26 14 32 14
51 1 18 -13 25 -13 49 -1 24 13 28 13 33 0 3 -8 16 -15 28 -15 21 1 22 1 5 11
-18 10 -17 13 12 41 30 30 41 58 21 58 -5 0 -10 -8 -10 -18 0 -11 -9 -27 -20
-37 -20 -18 -21 -18 -14 1 4 10 11 25 17 32 6 8 6 12 -2 12 -6 0 -17 -13 -26
-30 -17 -33 -49 -54 -71 -46 -25 9 -15 30 36 81 63 61 106 128 115 176 9 50
-17 48 -70 -7z m38 -41 c-33 -63 -125 -164 -139 -151 -4 5 49 110 75 149 13
19 35 44 50 56 26 23 26 23 29 3 2 -12 -5 -37 -15 -57z"/>
<path d="M2850 2605 c-7 -8 -9 -15 -5 -15 4 0 3 -6 -2 -12 -6 -7 -18 -38 -28
-68 -24 -73 -22 -157 5 -209 27 -54 34 -53 10 2 -33 73 -21 152 47 305 7 17
-12 15 -27 -3z"/>
<path d="M2920 2500 c0 -5 5 -10 11 -10 5 0 7 5 4 10 -3 6 -8 10 -11 10 -2 0
-4 -4 -4 -10z"/>
<path d="M3655 2500 c-3 -5 -1 -10 4 -10 6 0 11 5 11 10 0 6 -2 10 -4 10 -3 0
-8 -4 -11 -10z"/>
<path d="M2710 2460 c-9 -6 -10 -10 -3 -10 6 0 15 5 18 10 8 12 4 12 -15 0z"/>
<path d="M2968 2425 c-21 -19 -34 -35 -30 -35 5 0 18 9 30 21 30 27 48 15 27
-17 -9 -14 -13 -29 -10 -34 8 -13 52 -13 60 0 4 6 15 8 25 5 12 -4 19 1 23 14
3 11 20 29 38 40 19 12 27 21 19 21 -8 0 -40 -16 -70 -35 -54 -35 -80 -43 -80
-26 0 5 6 16 14 24 14 13 12 57 -3 57 -3 0 -23 -16 -43 -35z"/>
<path d="M4341 2434 c-43 -55 -35 -102 12 -71 14 9 33 14 44 11 11 -3 25 2 34
12 13 16 12 16 -8 6 -24 -13 -37 -3 -27 22 6 16 -11 46 -26 46 -5 0 -18 -12
-29 -26z m32 -1 c-5 -12 -3 -14 7 -8 8 5 11 3 8 -6 -3 -8 -10 -13 -16 -12 -6
2 -9 -4 -6 -12 6 -15 -21 -33 -32 -22 -8 8 5 45 22 62 20 19 25 19 17 -2z"/>
<path d="M2881 2419 c-24 -39 -23 -52 5 -58 15 -3 16 -1 6 12 -11 13 -10 20 4
42 9 14 14 28 11 31 -3 4 -15 -9 -26 -27z"/>
<path d="M3277 2444 c7 -3 9 -13 6 -22 -6 -15 -5 -15 10 -3 19 15 14 31 -11
30 -10 0 -12 -3 -5 -5z"/>
<path d="M3618 2425 c-26 -34 -24 -65 5 -64 12 0 16 3 10 6 -16 6 -17 35 -2
50 6 6 10 16 8 21 -2 6 -12 0 -21 -13z"/>
<path d="M3695 2414 c-38 -34 -39 -35 -4 -10 20 14 39 26 42 26 9 0 -4 -32
-21 -53 -28 -32 -6 -27 34 8 48 43 75 48 50 10 -9 -14 -14 -30 -11 -35 7 -11
59 13 71 32 5 7 -4 5 -19 -4 -37 -25 -51 -23 -33 4 33 47 14 62 -35 27 l-30
-21 7 26 c8 35 -3 33 -51 -10z"/>
<path d="M4454 2435 c-18 -14 -18 -15 0 -9 16 6 17 4 11 -17 -4 -13 -20 -37
-36 -53 -16 -15 -29 -32 -29 -37 0 -5 13 5 28 22 24 27 31 30 48 21 16 -9 28
-7 53 9 40 24 36 36 -4 15 -20 -10 -33 -12 -41 -5 -13 11 -7 52 7 43 5 -3 6 2
3 10 -8 20 -15 20 -40 1z"/>
<path d="M3239 2423 c-13 -16 -12 -17 4 -4 16 13 21 21 13 21 -2 0 -10 -8 -17
-17z"/>
<path d="M3970 2423 c-31 -21 -50 -45 -44 -55 9 -14 22 -8 27 11 3 11 20 29
38 40 19 12 27 21 19 21 -9 0 -27 -8 -40 -17z"/>
<path d="M4233 2424 c-7 -19 7 -46 28 -52 12 -3 12 -2 0 6 -8 6 -12 19 -8 31
6 26 -11 39 -20 15z"/>
<path d="M3142 2400 c-16 -26 -15 -37 2 -43 9 -4 12 0 9 13 -3 10 0 21 6 24
13 8 15 26 3 26 -4 0 -13 -9 -20 -20z"/>
<path d="M4005 2400 c-18 -20 -18 -21 0 -38 10 -9 15 -11 11 -5 -4 7 -2 22 4
34 16 28 7 34 -15 9z"/>
<path d="M2905 2295 l-50 -12 77 5 c108 7 197 -29 172 -69 -3 -5 -3 -9 0 -9 3
0 10 9 16 21 15 27 -1 46 -49 58 -65 17 -115 19 -166 6z"/>
<path d="M3517 2012 c-10 -10 -17 -26 -17 -35 0 -24 35 -56 57 -52 10 2 21 4
24 4 3 1 11 12 17 25 9 20 7 29 -9 50 -24 31 -49 33 -72 8z m53 -38 c0 -17
-22 -14 -28 4 -2 7 3 12 12 12 9 0 16 -7 16 -16z"/>
<path d="M3736 1918 c-28 -39 -20 -75 21 -97 27 -14 70 2 78 30 21 66 -61 121
-99 67z m59 -43 c0 -28 -29 -25 -33 3 -3 19 0 23 15 20 10 -2 18 -12 18 -23z"/>
<path d="M3542 1778 c-54 -58 -44 -116 22 -133 41 -10 79 4 99 36 23 37 -29
119 -76 119 -13 0 -33 -10 -45 -22z m72 -40 c33 -46 9 -77 -48 -62 -31 8 -34
32 -6 62 26 28 35 28 54 0z"/>
<path d="M4722 1531 c-10 -6 -6 -10 15 -15 35 -9 73 -44 73 -68 0 -10 5 -18
10 -18 12 0 13 50 2 66 -12 17 -55 44 -72 44 -8 0 -21 -4 -28 -9z"/>
<path d="M4170 1166 c0 -8 5 -18 10 -21 6 -3 10 3 10 14 0 12 -4 21 -10 21 -5
0 -10 -6 -10 -14z"/>
</g>
</svg>
